<?xml version="1.0" encoding="iso-8859-1"?>
<!-- Generator: Adobe Illustrator 19.0.0, SVG Export Plug-In . SVG Version: 6.00 Build 0)  -->
<svg version="1.1" id="Capa_1" xmlns="http://www.w3.org/2000/svg" xmlns:xlink="http://www.w3.org/1999/xlink" x="0px" y="0px"
	 viewBox="0 0 490 490" style="enable-background:new 0 0 490 490;" xml:space="preserve">
<g>
	<g>
		<g>
			<path fill="#D9B573" d="M489.5,435.8L458.2,147c-1-9.4-9.4-17.7-19.8-17.7H392C385.4,56.9,322.5,0,245.5,0S105.7,56.9,98.2,129.3H51.6
				c-10.4,0-18.8,7.3-19.8,17.7L0.5,435.8c-1,13.6,3.1,27.1,12.5,37.5c9.4,10.4,23,16.7,37.6,16.7h389.9c14.6,0,28.1-6.3,36.5-16.7
				C486.4,462.9,490.5,449.3,489.5,435.8z M245.5,39.6c54.3,0,99.6,39.7,105.6,89.7H139.9C145.9,78.5,191.2,39.6,245.5,39.6z
				 M440.5,449.3H50.6c-5.6,0-9.4-3.8-9.4-9.4l29.2-270h27.1v33.4c0,11.5,9.4,20.9,20.9,20.9s20.9-9.4,20.9-20.9v-33.4H352v32.3
				c0,11.5,9.4,20.9,20.9,20.9c10.4,0,19.8-8.3,19.8-19.8v-33.4h28.1l29.2,270C449.9,445.1,446.4,449.3,440.5,449.3z"/>
		</g>
	</g>
</g>
</svg>
